<svg xmlns="http://www.w3.org/2000/svg" width="18" height="18" viewBox="0 0 18 18"><title>Shape</title><path d="M0 9a9 9 0 1 0 18.001-.001A9 9 0 0 0 0 9zm16.49-.12c-1.09-.28-2.22-.43-3.35-.44-.58 0-1.15.04-1.72.13-.04.01-.08.02-.13.03-.19-.46-.39-.9-.6-1.34 1.59-.67 3-1.69 4.13-2.98a7.417 7.417 0 0 1 1.67 4.6zM10.01 5.9a29.71 29.71 0 0 0-2.76-4.19c2.27-.55 4.67-.01 6.48 1.48a9.915 9.915 0 0 1-3.72 2.71zm-1.44.53c-2.14.6-4.35.88-6.57.84-.1 0-.19-.01-.29-.01a7.54 7.54 0 0 1 4.03-5.01c1.07 1.31 2.02 2.71 2.83 4.18zM1.51 8.75c.17 0 .32.02.49.02 2.46.04 4.92-.29 7.28-.99.18.39.36.78.52 1.17-2.66.86-4.94 2.62-6.45 4.97A7.477 7.477 0 0 1 1.5 9c0-.09.01-.17.01-.25zm8.85 1.59c.66 1.82 1.13 3.71 1.41 5.62-2.45.99-5.23.6-7.31-1 1.35-2.2 3.44-3.84 5.9-4.62zm1.49-.3c.44-.06.88-.09 1.33-.09 1.07.01 2.15.16 3.19.44a7.554 7.554 0 0 1-3.2 4.84c-.28-1.77-.73-3.51-1.32-5.19z"/></svg>