<?xml version="1.0" encoding="UTF-8"?>
<svg width="112px" height="67px" viewBox="0 0 112 67" version="1.1" xmlns="http://www.w3.org/2000/svg" xmlns:xlink="http://www.w3.org/1999/xlink">
    <!-- Generator: Sketch 41 (35326) - http://www.bohemiancoding.com/sketch -->
    <title>ico-quality</title>
    <desc>Created with Sketch.</desc>
    <defs></defs>
    <g id="Page-1" stroke="none" stroke-width="1" fill="none" fill-rule="evenodd">
        <g id="Index" transform="translate(-847.000000, -2443.000000)">
            <g id="Super-Powers" transform="translate(5.000000, 1691.000000)">
                <g id="4" transform="translate(725.000000, 709.000000)">
                    <g id="Quality" transform="translate(117.000000, 43.000000)">
                        <path d="M62.4,24.9 L56.2,12.4 L50,24.9 L36.2,26.9 L46.2,36.6 L43.8,50.3 L56.1,43.8 L68.4,50.3 L66,36.6 L76,26.9 L62.4,24.9 Z M63.2,43 L56.2,39.3 L49.2,43 L50.5,35.2 L44.8,29.7 L52.6,28.6 L56.1,21.5 L59.6,28.6 L67.4,29.7 L61.7,35.2 L63.2,43 Z" id="Shape" fill="#FF2C01"></path>
                        <path d="M98.3,33.1 L111.8,13.6 L82.3,13.6 C76.3,5.7 66.7,0.6 56.2,0.6 C45.5,0.6 36.1,5.7 30.1,13.6 L0.6,13.6 L14.1,33.1 L0.6,53.2 L30,53.2 C36,61.1 45.5,66.2 56.1,66.2 C66.6,66.2 76.2,61.1 82.2,53.2 L111.7,53.2 L98.3,33.1 Z M8.1,49.2 L19,33 L8.3,17.5 L27.6,17.5 C25,22.2 23.5,27.6 23.5,33.3 C23.5,39 25,44.4 27.6,49.1 L8.1,49.1 L8.1,49.2 Z M85,35.7 C83.8,50.6 71.2,62.2 56.3,62.2 C40.4,62.2 27.5,49.3 27.5,33.4 C27.5,17.5 40.4,4.6 56.3,4.6 C71.2,4.6 83.8,16.2 85,31.1 L89,30.8 C88.6,26 87.2,21.6 85,17.6 L104.3,17.6 L93.5,33 L104.3,49.2 L85,49.2 C87.2,45.2 88.6,40.8 89,36 L85,35.7 Z" id="Shape" fill="#000201"></path>
                    </g>
                </g>
            </g>
        </g>
    </g>
</svg>