<?xml version="1.0" encoding="UTF-8"?>
<svg width="103px" height="76px" viewBox="0 0 103 76" version="1.1" xmlns="http://www.w3.org/2000/svg" xmlns:xlink="http://www.w3.org/1999/xlink">
    <!-- Generator: Sketch 41 (35326) - http://www.bohemiancoding.com/sketch -->
    <title>ico-web</title>
    <desc>Created with Sketch.</desc>
    <defs></defs>
    <g id="Page-1" stroke="none" stroke-width="1" fill="none" fill-rule="evenodd">
        <g id="Index" transform="translate(-849.000000, -1911.000000)">
            <g id="Super-Powers" transform="translate(5.000000, 1691.000000)">
                <g id="2" transform="translate(725.000000, 187.000000)">
                    <g id="Web" transform="translate(119.000000, 33.000000)">
                        <polygon id="Shape" fill="#FF2C01" points="31.7 42.7 24 34.9 31.7 27.2 34.6 30 29.7 34.9 34.6 39.9"></polygon>
                        <polygon id="Shape" fill="#FF2C01" points="58.8 42.7 56 39.9 60.9 34.9 56 30 58.8 27.2 66.5 34.9"></polygon>
                        <circle id="Oval" fill="#000000" cx="90.9" cy="69.3" r="2.1"></circle>
                        <circle id="Oval" fill="#000000" cx="45.3" cy="59.1" r="2.1"></circle>
                        <path d="M98.4,34.3 L89.5,34.3 L89.5,6.3 C89.5,2.9 86.7,0.1 83.3,0.1 L7.1,0.1 C3.7,0.1 0.9,2.9 0.9,6.3 L0.9,66.6 L34.8,66.6 L34.8,70 L33.1,70 C30.2,70 27.9,72.3 27.9,75.2 L31.9,75.2 C31.9,74.5 32.4,74 33.1,74 L57.3,74 C58,74 58.5,74.5 58.5,75.2 L62.5,75.2 C62.5,72.3 60.2,70 57.3,70 L55.6,70 L55.6,66.6 L79.3,66.6 L79.3,72 C79.3,74.2 81.1,76 83.3,76 L98.5,76 C100.7,76 102.5,74.2 102.5,72 L102.5,38.3 C102.4,36.1 100.6,34.3 98.4,34.3 Z M98.4,62.7 L83.2,62.7 L83.2,44 L98.4,44 L98.4,62.7 Z M98.4,38.3 L98.4,40 L83.2,40 L83.2,38.3 L98.4,38.3 Z M51.6,70.1 L38.9,70.1 L38.9,66.7 L51.6,66.7 L51.6,70.1 Z M79.3,62.7 L5,62.7 L5,55.8 L13,55.8 L15,55.8 L58.2,55.8 L58.2,51.8 L47.2,51.8 L47.2,15.9 L71.8,15.9 C72.7,15.9 73.4,16.6 73.4,17.5 L73.4,51.7 L62.5,51.7 L62.5,55.7 L75.4,55.7 L77.4,55.7 L79.2,55.7 L79.2,62.7 L79.3,62.7 Z M17,51.8 L17,17.6 C17,16.7 17.7,16 18.6,16 L43.2,16 L43.2,51.9 L17,51.9 L17,51.8 Z M79.3,38.3 L79.3,51.8 L77.5,51.8 L77.5,17.6 C77.5,14.5 75,12 71.9,12 L18.7,12 C15.6,12 13.1,14.5 13.1,17.6 L13.1,51.8 L5.1,51.8 L5.1,6.4 C5.1,5.2 6.1,4.2 7.3,4.2 L83.5,4.2 C84.7,4.2 85.7,5.2 85.7,6.4 L85.7,34.4 L83.5,34.4 C81.1,34.3 79.3,36.1 79.3,38.3 Z M83.3,72 L83.3,66.6 L98.5,66.6 L98.5,72 L83.3,72 Z" id="Shape" fill="#000201"></path>
                    </g>
                </g>
            </g>
        </g>
    </g>
</svg>