<?xml version="1.0" encoding="UTF-8"?>
<svg width="69px" height="69px" viewBox="0 0 69 69" version="1.1" xmlns="http://www.w3.org/2000/svg" xmlns:xlink="http://www.w3.org/1999/xlink">
    <!-- Generator: Sketch 41 (35326) - http://www.bohemiancoding.com/sketch -->
    <title>ico-fonts</title>
    <desc>Created with Sketch.</desc>
    <defs></defs>
    <g id="Page-1" stroke="none" stroke-width="1" fill="none" fill-rule="evenodd">
        <g id="Index" transform="translate(-124.000000, -2440.000000)">
            <g id="Super-Powers" transform="translate(5.000000, 1691.000000)">
                <g id="3" transform="translate(0.000000, 709.000000)">
                    <g id="Fonts" transform="translate(119.000000, 40.000000)">
                        <path d="M61.1,0.9 L7.7,0.9 C3.7,0.9 0.4,4.2 0.4,8.2 L0.4,68.1 L68.4,68.1 L68.4,8.2 C68.3,4.2 65.1,0.9 61.1,0.9 Z M4.4,64.1 L4.4,57.6 L13.9,57.6 L13.9,53.6 L4.4,53.6 L4.4,8.2 C4.4,6.4 5.9,4.9 7.7,4.9 L61.1,4.9 C62.9,4.9 64.4,6.4 64.4,8.2 L64.4,53.6 L21,53.6 L21,57.6 L64.4,57.6 L64.4,64.1 L4.4,64.1 Z" id="Shape" fill="#000201"></path>
                        <path d="M28,43.8 C29.8,45.4 31.8,46.2 34.3,46.2 C36.8,46.2 38.9,45.4 40.6,43.8 C42.4,42.2 43.2,40.3 43.2,38.1 C43.2,35.7 42.2,33.7 40.2,32.1 L31.4,23.9 C30.5,23.1 30,22.2 30,21 L30,20.8 C30,18.5 31.9,16.6 34.3,16.6 C36.7,16.6 38.6,18.5 38.6,20.8 L38.6,22.5 L42.9,22.5 L42.9,21.1 C42.9,18.8 42,17 40.4,15.4 C38.7,13.8 36.7,13 34.3,13 C31.9,13 29.8,13.8 28.2,15.4 C26.5,17 25.7,18.9 25.7,21.1 C25.7,23.5 26.7,25.5 28.8,27.1 L37.6,35.3 C38.5,36.1 38.9,37.1 38.9,38.2 L38.9,38.4 C38.9,40.7 36.9,42.6 34.3,42.6 C31.8,42.6 29.6,40.7 29.6,38.4 L29.6,36.7 L25.3,36.7 L25.3,38.1 C25.4,40.3 26.3,42.2 28,43.8 Z" id="Shape" fill="#FF2C01"></path>
                    </g>
                </g>
            </g>
        </g>
    </g>
</svg>