<?xml version="1.0" encoding="UTF-8"?>
<svg width="104px" height="62px" viewBox="0 0 104 62" version="1.1" xmlns="http://www.w3.org/2000/svg" xmlns:xlink="http://www.w3.org/1999/xlink">
    <!-- Generator: Sketch 41 (35326) - http://www.bohemiancoding.com/sketch -->
    <title>ico-design</title>
    <desc>Created with Sketch.</desc>
    <defs></defs>
    <g id="Page-1" stroke="none" stroke-width="1" fill="none" fill-rule="evenodd">
        <g id="Index" transform="translate(-124.000000, -1916.000000)">
            <g id="Super-Powers" transform="translate(5.000000, 1691.000000)">
                <g id="1" transform="translate(0.000000, 187.000000)">
                    <g id="Design" transform="translate(119.000000, 38.000000)">
                        <path d="M49.7,57.1 C38.8,56.8 30.7,48.1 30.7,36.7 C30.7,25.4 38.9,16.6 49.7,16.3 L49.6,12.3 C49.1,12.3 48.6,12.3 48.1,12.4 C21.7,13.5 2.8,34.5 2.1,35.4 L0.9,36.7 L2,38 C2.8,38.9 21.6,59.9 48.1,61 C48.6,61 49.1,61.1 49.6,61.1 L49.7,57.1 Z M33.4,19.3 C29.2,23.7 26.6,29.8 26.6,36.7 C26.6,43.6 29.2,49.7 33.4,54.1 C19.7,49.3 9.6,40.1 6.2,36.7 C9.7,33.3 19.8,24.1 33.4,19.3 Z" id="Shape" fill="#000201"></path>
                        <path d="M102.3,35.4 C101.5,34.5 82.7,13.5 56.2,12.4 C55.7,12.4 55.2,12.3 54.6,12.3 L54.5,16.3 C65.4,16.6 73.6,25.3 73.6,36.7 C73.6,48.1 65.4,56.8 54.6,57.1 L54.7,61.1 C55.2,61.1 55.7,61.1 56.2,61 C82.6,59.9 101.5,38.9 102.2,38 L103.4,36.7 L102.3,35.4 Z M70.8,54.2 C75,49.8 77.6,43.7 77.6,36.8 C77.6,29.9 75,23.8 70.8,19.4 C84.5,24.2 94.6,33.4 98,36.8 C94.6,40.2 84.5,49.4 70.8,54.2 Z" id="Shape" fill="#000201"></path>
                        <rect id="Rectangle-path" fill="#000201" x="50" y="0.3" width="4" height="8"></rect>
                        <rect id="Rectangle-path" fill="#000201" x="50" y="0.3" width="4" height="8"></rect>
                        <rect id="Rectangle-path" fill="#000201" transform="translate(72.999990, 7.885350) rotate(27.187723) translate(-72.999990, -7.885350) " x="71.0000221" y="3.88541428" width="3.99993572" height="7.99987144"></rect>
                        <rect id="Rectangle-path" fill="#000201" transform="translate(31.022950, 7.888010) rotate(62.812277) translate(-31.022950, -7.888010) " x="27.0230143" y="5.88804214" width="7.99987144" height="3.99993572"></rect>
                        <path d="M52,21.8 C46.1,21.8 41.3,26.6 41.3,32.5 C41.3,34.5 42.3,37.1 44.4,40.6 L44.4,50.7 L59.6,50.7 L59.6,40.6 C61.7,37.1 62.7,34.5 62.7,32.5 C62.7,26.6 57.9,21.8 52,21.8 Z M48.4,46.6 L48.4,44.1 L55.6,44.1 L55.6,46.6 L48.4,46.6 Z M55.9,38.9 L55.6,39.4 L55.6,40.1 L54,40.1 L54,32.2 L50,32.2 L50,40.1 L48.4,40.1 L48.4,39.4 L48.1,38.9 C45.7,34.9 45.3,33.2 45.3,32.4 C45.3,28.7 48.3,25.7 52,25.7 C55.7,25.7 58.7,28.7 58.7,32.4 C58.7,33.2 58.4,35 55.9,38.9 Z" id="Shape" fill="#FF2C01"></path>
                    </g>
                </g>
            </g>
        </g>
    </g>
</svg>