<svg xmlns="http://www.w3.org/2000/svg" width="18" height="18" viewBox="0 0 18 18"><title>Group</title><path d="M8.61 5C6.09 5 4 7.05 4 9.61c0 2.55 2.05 4.61 4.61 4.61 2.55 0 4.61-2.09 4.61-4.61C13.22 7.09 11.13 5 8.61 5zm0 7.56c-1.62 0-2.95-1.33-2.95-2.95s1.33-2.95 2.95-2.95 2.95 1.33 2.95 2.95-1.33 2.95-2.95 2.95zM13 4a1 1 0 1 1 2 0 1 1 0 0 1-2 0z"/><path d="M16.42 1.48C15.48.5 14.15 0 12.64 0H5.22C2.09 0 0 2.09 0 5.22v7.38c0 1.55.5 2.88 1.51 3.85.97.94 2.27 1.41 3.75 1.41h7.34c1.55 0 2.84-.51 3.78-1.41.97-.93 1.48-2.27 1.48-3.81V5.22c0-1.51-.51-2.81-1.44-3.74zm-.22 11.16c0 1.11-.32 2.01-.97 2.62-.65.62-1.55.94-2.63.94H5.26c-1.08 0-1.98-.32-2.63-.94-.65-.64-.97-1.54-.97-2.66V5.22c0-1.08.32-1.98.97-2.63.61-.61 1.55-.93 2.63-.93h7.41c1.08 0 1.98.32 2.63.97.61.65.97 1.55.97 2.59v7.42z"/></svg>